# xmcd CD database file generated by OrangeCD 5.2
#
# Track frame offsets:
#	150
#	19057
#	36985
#	55535
#	72002
#	87162
#	106492
#	120947
#	136890
#	153830
#	171259
#
# Disc length: 2560 seconds
#
# Revision: 0
# Processed by: cddbd v1.5.1PL2 Copyright (c) Steve Scherf et al.
# Submitted via: OrangeCD 5.2
#
DISCID=8109fe0b
DTITLE=Various Artist - Ultradance 80's
DYEAR=2003
DGENRE=Disco/Dance
TTITLE0=Aretha Franklin - Freeway Of Love
TTITLE1=The Pointer Sisters - Jump
TTITLE2=Billy Ocean - Caribbean Queen
TTITLE3=Taylor Dayne - Tell It To My Heart
TTITLE4=Samantha Fox - Naughty Girls
TTITLE5=Expose - Come Go With Me
TTITLE6=The Thompson Twins - Lies
TTITLE7=Haircut 100 - Love Plus One
TTITLE8=Barbara Roy - Gotta See You Tonight
TTITLE9=Evelyn Champagne King - I'm In Love
TTITLE10=Shannon - Let The Music Play
EXTD=
EXTT0=
EXTT1=
EXTT2=
EXTT3=
EXTT4=
EXTT5=
EXTT6=
EXTT7=
EXTT8=
EXTT9=
EXTT10=
PLAYORDER=
